<svg viewBox="0 0 104 60" xmlns="http://www.w3.org/2000/svg"><path d="M50.08.027c-2.063.2-3.29.389-4.611.67-10.191 2.24-18.603 9.707-21.986 19.495-.904 2.628-1.645 6.396-1.645 8.38 0 .51-.04.577-.499.791-.876.402-4.327 2.346-6.443 3.607-7.967 4.746-12.86 8.862-14.37 12.08-.89 1.904-.634 3.822.674 5.162 1.577 1.61 4.192 2.293 8.789 2.293 4.502 0 11.013-.791 17.551-2.118l1.86-.39 1.416 1.382c3.41 3.352 7.872 5.993 12.388 7.36 3.262.98 6.228 1.355 9.908 1.234 4.287-.147 7.994-1.032 11.795-2.829C74.101 52.8 80.45 44.18 81.892 34.07c.108-.737.203-1.703.203-2.145 0-.442.054-.871.107-.939.054-.08.971-.616 2.05-1.193 2.601-1.408 6.86-3.955 9.14-5.47 7.198-4.787 10.568-8.46 10.595-11.585.013-1.756-.971-3.19-2.818-4.089-3.707-1.797-11.997-1.488-24.224.898l-2.386.47-1.186-1.18C68.655 4.143 62.306 1.019 55.808.215 54.555.067 50.942-.054 50.08.027zm47.894 12.308c.472.12.998.295 1.173.389l.324.16-.27.604c-.323.724-3.127 3.54-4.84 4.854-6.497 4.974-21.258 12.362-36.046 18.033-13.979 5.35-30.761 9.922-42.287 11.518-2.157.308-7.522.348-9.018.067-1.254-.228-2.427-.644-2.427-.872 0-.335.89-1.488 1.982-2.56 1.914-1.891 5.567-4.573 9.517-6.986 2.224-1.354 5.904-3.446 5.958-3.379.014.027.189.831.378 1.81.418 2.078 1.172 4.411 2.022 6.275l.606 1.34.499-.026c.27-.027 2.197-.456 4.287-.965C44.12 39.11 57.385 34.512 71 28.357c2.71-1.22 9.827-4.692 10.191-4.974.23-.16.216-.241-.161-1.582a30.171 30.171 0 0 0-2.872-6.757c-.39-.644-.498-.952-.377-1.02.431-.268 8.425-1.501 11.323-1.742.93-.067 1.901-.161 2.157-.188 1.146-.134 5.891.04 6.713.241z" fill="#000" fill-rule="nonzero"/></svg>